<svg xmlns="http://www.w3.org/2000/svg" width="132" height="49" viewBox="0 0 132 49">
    <defs>
        <linearGradient id="a" x1="49.719%" x2="49.719%" y1="7.699%" y2="109.644%">
            <stop offset="0%" stop-color="#144E8C"/>
            <stop offset="100%" stop-color="#0095DA"/>
        </linearGradient>
        <linearGradient id="b" x1="82.221%" x2="31.999%" y1="7.262%" y2="71.858%">
            <stop offset="16.12%" stop-color="#1F4889"/>
            <stop offset="30.56%" stop-color="#00609C"/>
            <stop offset="52.54%" stop-color="#0080BA"/>
            <stop offset="70.89%" stop-color="#0098D4"/>
            <stop offset="84.66%" stop-color="#00A7E6"/>
            <stop offset="92.27%" stop-color="#00AEEF"/>
        </linearGradient>
        <linearGradient id="c" x1="-28.743%" x2="82.914%" y1="27.813%" y2="67.031%">
            <stop offset="34.47%" stop-color="#00AEEF"/>
            <stop offset="40.6%" stop-color="#00A7E6"/>
            <stop offset="51.37%" stop-color="#0099D5"/>
            <stop offset="65.5%" stop-color="#0083BC"/>
            <stop offset="82.46%" stop-color="#00669E"/>
            <stop offset="100%" stop-color="#284181"/>
        </linearGradient>
        <linearGradient id="d" x1="108.608%" x2="-117.771%" y1="49.865%" y2="49.865%">
            <stop offset="11.93%" stop-color="#00AEEF"/>
            <stop offset="17.41%" stop-color="#00AAEA"/>
            <stop offset="24.92%" stop-color="#00A2E0"/>
            <stop offset="33.58%" stop-color="#0095D2"/>
            <stop offset="43.11%" stop-color="#0083BF"/>
            <stop offset="53.25%" stop-color="#096CA9"/>
            <stop offset="54.97%" stop-color="#1C68A6"/>
        </linearGradient>
        <linearGradient id="e" x1="-4.811%" x2="103.354%" y1="44.226%" y2="61.58%">
            <stop offset="24.24%" stop-color="#274185"/>
            <stop offset="38.5%" stop-color="#174C8E"/>
            <stop offset="67.86%" stop-color="#0066A8"/>
            <stop offset="92.73%" stop-color="#007DC5"/>
        </linearGradient>
        <linearGradient id="f" x1="21.389%" x2="56.611%" y1="68.28%" y2="44.429%">
            <stop offset="24.24%" stop-color="#274185"/>
            <stop offset="38.5%" stop-color="#174C8E"/>
            <stop offset="67.86%" stop-color="#0066A8"/>
            <stop offset="92.73%" stop-color="#007DC5"/>
        </linearGradient>
    </defs>
    <g fill="none" fill-rule="nonzero">
        <path fill="url(#a)" d="M40.146 30.194a21.935 21.935 0 0 0 2.236-9.64c-.118-4.064-1.294-7.896-3.412-11.031-1.53 1.858-3.06 3.6-4.59 5.11 7.06 3.6 6.943 10.567 5.766 15.56z" transform="translate(1)"/>
        <path fill="url(#b)" d="M22.026 25.548c-2.942-5.342-4-9.522-3.648-13.006-4.824.348-10.707 1.277-17.65 2.903.824 4.994 5.06 20.671 21.298 10.103z" transform="translate(1)"/>
        <path fill="url(#c)" d="M18.378 12.542c7.531-.465 12.59.464 16.003 2.206 1.412-1.51 2.942-3.251 4.589-5.11-2.706-4.064-6.707-7.083-11.414-8.593-4.236 1.858-8.707 5.342-9.178 11.497z" transform="translate(1)"/>
        <path fill="url(#d)" d="M34.38 14.748c-4.706 5.11-8.824 8.594-12.354 10.8 2.236 3.833 5.413 8.246 10.002 13.355a22.4 22.4 0 0 0 8.118-8.71c1.177-4.993 1.295-11.96-5.765-15.445z" transform="translate(1)"/>
        <path fill="url(#e)" d="M22.026 25.548C5.671 36.116 1.552 20.438.73 15.445c-.47 1.858-.824 3.832-.706 5.923.235 11.497 9.884 20.787 21.532 20.555 3.883-.117 7.413-1.162 10.59-3.02-4.706-5.11-7.883-9.522-10.119-13.355z" transform="translate(1)"/>
        <path fill="url(#f)" d="M20.732 0C11.083.116 3.082 6.62.612 15.445c6.941-1.626 12.825-2.555 17.649-2.903.47-6.155 5.06-9.639 9.178-11.497C25.439.348 23.085 0 20.732 0z" transform="translate(1)"/>
        <path fill="#013A81" d="M46.794 30.077c0-8.36 4.472-10.683 18.591-10.683h1.53c-.118-4.181-1.059-6.155-7.06-6.155-3.53 0-6.59 1.277-8.354 2.438l-2.589-3.948c1.883-1.277 6.354-3.252 11.296-3.252 9.649 0 11.296 3.368 11.296 11.73v10.451c0 2.787.235 3.252 2.824 3.252v4.529c-.353.116-1.06.116-2 .116-3.06 0-4.119-.93-4.825-3.368-1.647 2.439-4.706 3.832-10.707 3.832-8.119-.116-10.002-4.064-10.002-8.942zm20.121-4.645V23.69h-1.294c-11.65 0-14.12 1.394-14.12 6.039 0 3.136 1.412 4.761 6.236 4.761 6.472 0 9.178-2.787 9.178-9.058zM74.799 30.077c0-8.36 4.47-10.683 18.59-10.683h1.53c-.117-4.181-1.059-6.155-7.06-6.155-3.53 0-6.589 1.277-8.354 2.438l-2.588-3.948c1.882-1.277 6.353-3.252 11.295-3.252 9.649 0 11.296 3.368 11.296 11.73v10.451c0 2.787.235 3.252 2.824 3.252v4.529c-.353.116-1.059.116-2 .116-3.06 0-4.118-.93-4.824-3.368C93.86 37.626 90.8 39.02 84.8 39.02 76.8 38.903 74.8 34.955 74.8 30.077zm20.12-4.645V23.69h-1.294c-11.649 0-14.12 1.394-14.12 6.039 0 3.136 1.412 4.761 6.236 4.761 6.59 0 9.178-2.787 9.178-9.058zM103.744 9.406l3.883-.232.353 3.136c1.53-2.439 4.707-3.833 10.943-3.833 9.413 0 12.002 6.271 12.002 15.213s-2.707 15.097-12.238 15.097c-5.883 0-8.707-1.161-10.119-3.484v11.73h-4.942V9.405h.118zm22.239 14.4c0-6.387-1.648-10.567-8.12-10.567-6.588 0-9.177 2.787-9.177 10.567 0 7.781 2.47 10.336 9.178 10.336 6.471.116 8.119-3.832 8.119-10.336z"/>
    </g>
</svg>
