<?xml version="1.0" encoding="UTF-8"?> <svg xmlns="http://www.w3.org/2000/svg" xmlns:xlink="http://www.w3.org/1999/xlink" id="Layer_1" x="0px" y="0px" viewBox="0 0 636 132" xml:space="preserve"> <g> <polygon fill="#F6921E" points="223.1,19.5 217.8,14.8 212.5,10.1 212.5,10.1 204.4,12.1 209.7,16.8 215,21.4 212.4,28.1 209.8,34.7 209.8,34.7 209.7,34.7 209.7,34.7 217.9,32.7 217.9,32.7 220.5,26.1 "></polygon> <g> <path fill="#2567A8" stroke="#2567A8" stroke-width="0.5" stroke-miterlimit="10" d="M196,14.1c-12,2.5-29.4,5.3-41.6,7.4 c-13.8,2.4-27.6,4.6-41.7,6.8c-9.8,1.3-22,3.4-37.9,5.6c0,0-0.6,1.5-0.4,5.5c3.6,8.8,5.3,18.3,5.8,27.9c0.7,9.5-0.1,16-0.4,18.7 c-0.1,1.3-0.1,1.9-0.1,2.7c0,1.3-1.3,1.8-2.5,1c-1-0.9-1.5-2.4-1.9-4c-1.8-5.9-2.7-18-3-24.5c-0.1-1.8-1-22.9-1-22.9 c-0.4-1.2-1.2-2.5-2.1-3.9c-9.4,1.2-20.5,2.2-29.8,2.5c-6.8,0.1-14.8,0.1-21.4-0.9C12,35,5.2,32.8,3.5,27 c-1.5-4.6,0.9-10.8,6.5-15.1C15.9,7.4,23.4,5.5,31,5.6c7.3,0.4,14.3,3.1,20.5,7c7.7,4.6,14.3,11.1,18.9,19.2 c16-1.8,31.2-4.3,41.9-6.1c14.1-2.2,27.9-4.2,41.9-6.2C166.4,17.6,183.8,15.4,196,14.1z M67.7,32.2C63.2,24.8,57,19,50.2,14.8 c-5.8-3.6-12.5-6.1-19.5-6.2c-6.4-0.3-13.5,1.5-18.7,5.5c-5.3,4.3-6.4,9.2-5.5,12c1.3,4.5,7.6,6.1,11.7,7c6.2,1,14.3,1.3,20.8,1 C48.5,34,58.3,33.2,67.7,32.2z M74.7,48.2c0.1,4.2,0.4,8.6,0.6,12.9c0.3,5.9,0.9,15.3,2.2,21.4c0.4-5.2,0.4-10.2,0.3-15 C77.5,60.8,76.4,54.5,74.7,48.2z"></path> <path fill="#2567A8" stroke="#2567A8" stroke-width="0.5" stroke-miterlimit="10" d="M143.7,85.2c-1.6,0.4-3.4,0.9-4.9,1.3 c-3.4,0.9-7,1.8-10.2,1.9c-3.1,0-6.1-0.9-8.3-3.1c-1.3-1.5-2.2-3.3-2.8-5.3c-0.7-1.9-0.9-4.2-1.3-6.4c-1.8,3.6-4.8,6.7-7.6,9.4 c-1.6,1.5-2.7,2.7-4,3.1c-2.1,0.6-4,0-4.9-2.7c-0.4-1.3-0.7-3-0.4-11.1c0-6.1,0.4-13.2,0.6-19.2c0.4-7.9,0.7-11.1,1.2-18.7 c0.1-2.1,3.3-1.8,3.1,0.4c-0.4,6.4-0.9,12.2-1.2,18.7c-0.4,5.9-0.6,13.1-0.9,18.9c0,7.4,0.3,9.8,0.9,10.7c0.9-0.1,2.2-1.5,3.4-2.4 c2.8-2.7,5.5-6.1,7.6-9.7c0.4-0.9,1.9-4.9,1.9-4.9c0.9-1.9,3.6-1.3,3.6,0.7c0,3.7,0.3,8.6,1.2,12.5c0.1,1.5,0.9,3.1,1.9,4.2 c1.3,2.1,3.6,2.5,6.1,2.7c2.8,0.4,6.7-0.1,9.9-0.6C140.3,85.6,141.9,85.3,143.7,85.2z"></path> <path fill="#2567A8" stroke="#2567A8" stroke-width="0.5" stroke-miterlimit="10" d="M171.5,84.9c-3.4,0.7-7,1.6-10.5,2.1 c-3.6,0.6-7.3,1.3-10.8,1.5c-3.4,0.3-8.9,0.4-11.6-1.5c-1.2-0.9-1.6-2.2-1.6-3.6c0-2.1,0.7-4.3,1.3-6.1c1.2-2.7,2.7-5,4.8-7.3 c2.2-2.5,5.9-4.9,9.1-5.2c2.5-0.1,4.3,1.2,4.8,3.4c0.6,2.7-0.9,6.4-2.5,8.6c-2.4,3.1-5.3,5.8-8.9,7.4c-0.9,0.4-1.8,0.9-2.8,1.3 c2.2,0.4,5.3,0.4,7.6,0.4c3.6,0,7.1-0.3,10.7-0.4C164.3,85.3,167.9,85.2,171.5,84.9z M140.3,84.3c1.3-0.7,2.8-1.3,4-2.1 c3.1-1.5,5.5-4,7.3-6.8c1.2-1.6,2.5-4.8,2.1-6.5c0-0.4-0.4-0.9-1.3-0.6c-1.3,0.1-4.3,1.3-7,4.2c-1.5,1.8-3.1,4.3-4,6.2 C140.7,80.3,140,82.7,140.3,84.3z"></path> </g> <path fill="#2567A8" d="M180.9,36.8v11.7c0,1,0.8,1.8,1.8,1.8h16.4c1,0,1.8,0.8,1.8,1.8V60c0,1-0.8,1.8-1.8,1.8h-16.4 c-1,0-1.8,0.8-1.8,1.8v23c0,1-0.8,1.8-1.8,1.8h-8.4c-1,0-1.8-0.8-1.8-1.8V25.3c0-1,0.8-1.8,1.8-1.8h29.5c1,0,1.8,0.8,1.8,1.8v7.9 c0,1-0.8,1.8-1.8,1.8h-17.4C181.7,35,180.9,35.8,180.9,36.8z"></path> <path fill="#2567A8" d="M209.8,86.7V41.5c0-1,0.8-1.8,1.8-1.8h8.1c1,0,1.8,0.8,1.8,1.8v45.2c0,1-0.8,1.8-1.8,1.8h-8.1 C210.6,88.5,209.8,87.7,209.8,86.7z"></path> <path fill="#2567A8" d="M264,88.5c-0.8,0-1.5-0.7-1.5-1.5V64.6c0-13-3.5-15.3-9.3-15.3c-3.7,0-6.8,1.6-8.6,4.5 c-1.5,2.4-1.9,5.2-1.9,11.7V87c0,0.8-0.7,1.5-1.5,1.5h-8.8c-0.8,0-1.5-0.7-1.5-1.5V41.2c0-0.8,0.7-1.5,1.5-1.5h7.9 c0.8,0,1.5,0.7,1.5,1.5v0c0,1.2,1.4,1.9,2.3,1.2c3.4-2.7,6.9-3.8,11.4-3.8c6.8,0,12,2.5,15.2,7c2.6,3.8,3.5,8,3.5,16.7V87 c0,0.8-0.7,1.5-1.5,1.5H264z"></path> <path fill="#2567A8" d="M322.3,86.7v-0.3c0-1.5-1.8-2.3-3-1.3c-3.8,3.2-7.8,4.5-13.2,4.5c-14.2,0-24.5-10.6-24.5-25.3 c0-14.9,10.4-25.7,24.8-25.7c5.4,0,9.5,1.4,13,4.4c1.1,1,2.9,0.2,2.9-1.3v-0.1c0-1,0.8-1.8,1.8-1.8h7.2c1,0,1.8,0.8,1.8,1.8v45.2 c0,1-0.8,1.8-1.8,1.8h-7.2C323.1,88.5,322.3,87.7,322.3,86.7z M307.6,49.3c-8.4,0-14.2,6.3-14.2,15.2c0,8.5,5.9,14.3,14.4,14.3 c8.9,0,14.2-6.3,14.2-14.4C322,55.6,316,49.3,307.6,49.3z"></path> <path fill="#2567A8" d="M374.8,88.5c-0.8,0-1.5-0.7-1.5-1.5V64.6c0-13-3.5-15.3-9.3-15.3c-3.7,0-6.8,1.6-8.6,4.5 c-1.5,2.4-1.9,5.2-1.9,11.7V87c0,0.8-0.7,1.5-1.5,1.5h-8.8c-0.8,0-1.5-0.7-1.5-1.5V41.2c0-0.8,0.7-1.5,1.5-1.5h7.9 c0.8,0,1.5,0.7,1.5,1.5v0c0,1.2,1.4,1.9,2.3,1.2c3.4-2.7,6.9-3.8,11.4-3.8c6.8,0,12,2.5,15.2,7c2.6,3.8,3.5,8,3.5,16.7V87 c0,0.8-0.7,1.5-1.5,1.5H374.8z"></path> <path fill="#2567A8" d="M421.5,89.1c-14.3,1.8-27.2-8.1-28.9-22.1c-1.7-14.2,8.1-26.7,22.4-28.4c10.3-1.3,20,3,25.4,12.3 c0.6,0.9-0.1,2.2-1.1,2.3l-10,1.2c-0.5,0.1-1.1-0.2-1.4-0.6c-2.8-3.6-6.6-5.1-11.5-4.5c-8,1-13,7.8-12,16.3c1,8.5,7.8,14,15.9,13 c4.6-0.6,7.6-2.7,9.8-7c0.2-0.4,0.7-0.8,1.2-0.8l10-1.2c1.1-0.1,2,0.9,1.7,2C439.6,81.5,432,87.8,421.5,89.1z"></path> <path fill="#F6921E" d="M508.7,82.8L508.7,82.8c0-3.1,2.5-5.6,5.6-5.6h0.4c3.1,0,5.6,2.5,5.6,5.6v0c0,3.1-2.5,5.6-5.6,5.6h-0.4 C511.2,88.5,508.7,85.9,508.7,82.8z"></path> <path fill="#F6921E" d="M549.6,89.3c-9,1.1-16.2-2.7-19.2-12.3c-0.3-1.1,0.4-2.2,1.5-2.3l8.4-1c0.7-0.1,1.5,0.3,1.8,0.9 c1.6,3.1,3.6,4.3,6.7,4c3-0.4,5-2.7,4.7-5.4c-0.3-2.8-0.9-3.5-9-5.2c-10-2.1-14.3-5.6-15.2-12.7c-1-8.3,5.3-15.6,14.3-16.7 c7.6-0.9,14.9,2.9,17.2,10.5c0.3,1-0.4,2.1-1.5,2.2l-8.1,1c-0.7,0.1-1.4-0.3-1.8-0.9c-0.9-1.7-2.5-2.4-4.5-2.2 c-2.5,0.3-4.2,2.3-3.9,4.7c0.3,2.5,0.6,2.7,8.8,4.2c10.5,1.9,14.3,5.3,15.2,12.5C566,80,559.3,88.1,549.6,89.3z"></path> <path fill="#2567A8" d="M498.3,66.3l-34.1,4.2c-1,0.1-1.7,1.3-1.2,2.2c2.6,4.4,7.5,6.7,13.6,5.9c4.6-0.6,7.2-2.1,9.7-5.5 c0.2-0.4,0.6-0.6,1.1-0.6l9.8-1.2c1.1-0.1,2,0.9,1.6,1.9c-2.8,9.1-11.5,15-20.6,16.1c-15,1.8-27.9-8.1-29.3-22.6 c-1.5-14.9,10.6-28,25.5-28.2c13-0.1,23.4,9.2,25.1,23.2c0.2,1.3,0.2,2.2,0.2,3.2C499.6,65.6,499,66.2,498.3,66.3z M472.7,49.3 c-6.1,0.7-10.1,3.9-11.8,9.1c-0.3,1,0.6,2,1.6,1.9l22.6-2.8c1-0.1,1.7-1.3,1.2-2.2C483.8,50.7,479.1,48.6,472.7,49.3z"></path> <g> <path fill="#F6921E" d="M594.2,107.7c-10.9,0-19.4-4.7-23.8-12.9c-0.6-1.1,0.2-2.5,1.6-2.5h9.8c0.5,0,0.9,0.2,1.3,0.5 c3.2,3.4,6.5,4.6,11.7,4.6c7.1,0,11.4-3.4,13-10.4c0.4-1.6-1.5-2.8-2.8-1.7c-3.5,2.9-7.4,4.1-12.5,4.1 c-13.9,0-23.9-10.8-23.9-25.8c0-14.4,10.2-25.1,24-25.1c5.4,0,9.7,1.4,13,4.2c1.1,1,2.8,0.1,2.8-1.3v0c0-1,0.8-1.7,1.7-1.7h7.7 c1,0,1.7,0.8,1.7,1.7V79C619.4,99.9,609.3,107.7,594.2,107.7z M593.6,49.2c-8.2,0-13.5,6-13.5,14.9c0,8.9,5.4,14.6,13.7,14.6 c8.3,0,13.9-5.8,13.9-14.6C607.7,55.2,602,49.2,593.6,49.2z"></path> </g> </g> <g> <polygon fill="#231F20" points="78.8,106.9 76.3,106.9 76.3,111.4 73.6,111.4 73.6,113.7 76.3,113.7 76.3,124.9 78.8,124.9 78.8,113.7 81.7,113.7 81.7,111.4 78.8,111.4 "></polygon> <path fill="#231F20" d="M90.8,111.1c-1.5,0-2.8,0.5-3.7,1.3v-5.5h-2.5v18h2.5v-7.4c0-2.6,1.3-4.1,3.5-4.1c2.3,0,3.6,1.5,3.6,4.2 v7.2h2.5v-7.2C96.7,113.5,94.5,111.1,90.8,111.1z"></path> <path fill="#231F20" d="M107.3,111.1c-3.9,0-7,3.1-7,7c0,4,3.1,7.1,7.1,7.1c2.9,0,5.6-2,6.6-4.8l0.2-0.5h-2.6l-0.1,0.2 c-0.7,1.6-2.3,2.7-4.1,2.7c-2.3,0-4.2-1.7-4.6-3.8h11.5v-0.4C114.3,114.2,111.5,111.1,107.3,111.1z M111.8,116.8h-8.8 c0.6-2,2.3-3.4,4.4-3.4C109.4,113.4,111.1,114.7,111.8,116.8z"></path> <path fill="#231F20" d="M131.4,111.1c-1.9,0-3.5,0.6-4.6,1.8v-6h-2.5v18h2.5v-1.5c1.2,1.2,2.8,1.8,4.6,1.8c4.1,0,7.1-3,7.1-7.1 C138.5,114.2,135.4,111.1,131.4,111.1z M131.4,113.4c2.6,0,4.6,2,4.6,4.7c0,2.7-2,4.8-4.7,4.8c-2.6,0-4.7-2.1-4.7-4.8 C126.7,115.5,128.7,113.4,131.4,113.4z"></path> <path fill="#231F20" d="M151.7,118.3c0,3-1.2,4.6-3.6,4.6c-2.4,0-3.5-1.3-3.5-4.2v-7.3h-2.5v7.3c0,5.4,3.1,6.6,5.8,6.6 c1.7,0,2.8-0.5,3.7-1.5v1.2h2.5v-13.5h-2.5V118.3z"></path> <polygon fill="#231F20" points="166.8,113.4 166.8,111.4 157.3,111.4 157.3,113.7 163.8,113.7 157.1,122.8 157.1,124.9 167.3,124.9 167.3,122.6 160.2,122.6 "></polygon> <polygon fill="#231F20" points="178.7,113.4 178.7,111.4 169.2,111.4 169.2,113.7 175.6,113.7 168.9,122.8 168.9,124.9 179.1,124.9 179.1,122.6 172.1,122.6 "></polygon> <rect x="182.9" y="121.2" fill="#231F20" width="2.5" height="3.7"></rect> <polygon fill="#231F20" points="202.9,106.9 200.4,106.9 200.4,111.4 197.6,111.4 197.6,113.7 200.4,113.7 200.4,124.9 202.9,124.9 202.9,113.7 205.7,113.7 205.7,111.4 202.9,111.4 "></polygon> <path fill="#231F20" d="M214.9,111.1c-1.5,0-2.8,0.5-3.7,1.3v-5.5h-2.5v18h2.5v-7.4c0-2.6,1.3-4.1,3.5-4.1c2.3,0,3.6,1.5,3.6,4.2 v7.2h2.5v-7.2C220.7,113.5,218.6,111.1,214.9,111.1z"></path> <path fill="#231F20" d="M254.6,111.1c-1.4,0-2.7,0.5-3.7,1.4v-1.1h-2.5v13.5h2.5v-7.4c0-2.7,1.2-4.1,3.5-4.1c2.4,0,3.6,1.4,3.6,4.4 v7.1h2.5v-7.1C260.4,112,256.8,111.1,254.6,111.1z"></path> <polygon fill="#231F20" points="293.5,121.3 290.8,113 288.8,113 286,121.3 282.3,111.4 279.7,111.4 284.9,124.9 287.3,124.9 289.8,117.3 292.3,124.9 294.7,124.9 299.9,111.4 297.4,111.4 "></polygon> <path fill="#231F20" d="M307.8,117.3L307.8,117.3c-1.9-0.8-2-0.8-2.4-1c-0.7-0.3-1-0.7-1-1.3c0-0.8,0.6-1.5,1.5-1.5 c1,0,1.5,0.5,1.5,1.5v0.4h2.5v-0.4c0-2.2-1.7-3.8-4-3.8c-2.3,0-4,1.7-4,4c0,1,0.4,1.9,1.1,2.6c0.6,0.5,0.7,0.6,2.5,1.3 c1.9,0.8,2.2,1.1,2.2,2.1c0,1.1-0.7,1.8-1.8,1.8c-1.3,0-2-0.8-2-2.1v-0.4h-2.5v0.4c0,2.7,1.8,4.4,4.5,4.4c2.5,0,4.3-1.8,4.3-4.3 C310.3,119.2,309.4,117.9,307.8,117.3z"></path> <rect x="314.4" y="121.2" fill="#231F20" width="2.5" height="3.7"></rect> <polygon fill="#231F20" points="334.4,106.9 331.9,106.9 331.9,111.4 329.2,111.4 329.2,113.7 331.9,113.7 331.9,124.9 334.4,124.9 334.4,113.7 337.3,113.7 337.3,111.4 334.4,111.4 "></polygon> <path fill="#231F20" d="M346.4,111.1c-1.5,0-2.8,0.5-3.7,1.3v-5.5h-2.5v18h2.5v-7.4c0-2.6,1.3-4.1,3.5-4.1c2.3,0,3.6,1.5,3.6,4.2 v7.2h2.5v-7.2C352.2,113.5,350.1,111.1,346.4,111.1z"></path> <path fill="#231F20" d="M382,108.3c-0.7,0.8-1.1,1.8-1.2,3.1h-2v2.3h2v11.2h2.5v-11.2h3.2v-2.3h-3.2c0-0.7,0.2-1.2,0.5-1.6 c0.4-0.4,1.1-0.6,2.3-0.6h0.4v-2.3h-0.4C384.2,106.9,382.9,107.4,382,108.3z"></path> <path fill="#231F20" d="M434.2,106.9v5.9c-1.3-1.2-2.8-1.8-4.6-1.8c-4.1,0-7.2,3-7.2,7.1c0,4,3.2,7.1,7.3,7.1 c1.9,0,3.3-0.6,4.5-1.9v1.6h2.5v-18H434.2z M429.6,113.4c2.6,0,4.8,2.1,4.8,4.7c0,2.6-2.1,4.8-4.6,4.8c-2.7,0-4.8-2.1-4.8-4.8 C424.9,115.5,427,113.4,429.6,113.4z"></path> <rect x="111" y="119.4" fill="#FFFFFF" width="3.9" height="1.2"></rect> <path fill="#231F20" d="M231.4,111.1c-3.9,0-7,3.1-7,7c0,4,3.1,7.1,7.1,7.1c2.8,0,5.5-1.9,6.5-4.5h-2.6c-0.8,1.3-2.3,2.2-3.9,2.2 c-2.3,0-4.2-1.7-4.6-3.8h11.5v-0.4C238.4,114.2,235.6,111.1,231.4,111.1z M227,116.8c0.6-2,2.3-3.4,4.4-3.4c2.1,0,3.8,1.3,4.5,3.4 H227z"></path> <path fill="#231F20" d="M271.1,111.1c-3.9,0-7,3.1-7,7c0,4,3.1,7.1,7.1,7.1c2.8,0,5.5-1.9,6.5-4.5H275c-0.8,1.3-2.3,2.2-3.9,2.2 c-2.3,0-4.2-1.7-4.6-3.8h11.5v-0.4C278.1,114.2,275.3,111.1,271.1,111.1z M266.7,116.8c0.6-2,2.3-3.4,4.4-3.4 c2.1,0,3.8,1.3,4.5,3.4H266.7z"></path> <path fill="#231F20" d="M362.9,111.1c-3.9,0-7,3.1-7,7c0,4,3.1,7.1,7.1,7.1c2.8,0,5.5-1.9,6.5-4.5h-2.6c-0.8,1.3-2.3,2.2-3.9,2.2 c-2.3,0-4.2-1.7-4.6-3.8h11.5v-0.4C369.9,114.2,367.1,111.1,362.9,111.1z M358.5,116.8c0.6-2,2.3-3.4,4.4-3.4 c2.1,0,3.8,1.3,4.5,3.4H358.5z"></path> <path fill="#231F20" d="M395.2,111.1c-3.9,0-7,3.1-7,7c0,4,3.1,7.1,7.1,7.1c2.8,0,5.5-1.9,6.5-4.5h-2.6c-0.8,1.3-2.3,2.2-3.9,2.2 c-2.3,0-4.2-1.7-4.6-3.8h11.5v-0.4C402.2,114.2,399.4,111.1,395.2,111.1z M390.8,116.8c0.6-2,2.3-3.4,4.4-3.4 c2.1,0,3.8,1.3,4.5,3.4H390.8z"></path> <path fill="#231F20" d="M412.3,111.1c-3.9,0-7,3.1-7,7c0,4,3.1,7.1,7.1,7.1c2.8,0,5.5-1.9,6.5-4.5h-2.6c-0.8,1.3-2.3,2.2-3.9,2.2 c-2.3,0-4.2-1.7-4.6-3.8h11.5v-0.4C419.4,114.2,416.5,111.1,412.3,111.1z M407.9,116.8c0.6-2,2.3-3.4,4.4-3.4 c2.1,0,3.8,1.3,4.5,3.4H407.9z"></path> </g> </svg> 